<?xml version="1.0" encoding="UTF-8" standalone="no"?>
<svg
   xmlns:dc="http://purl.org/dc/elements/1.1/"
   xmlns:cc="http://creativecommons.org/ns#"
   xmlns:rdf="http://www.w3.org/1999/02/22-rdf-syntax-ns#"
   xmlns:svg="http://www.w3.org/2000/svg"
   xmlns="http://www.w3.org/2000/svg"
   viewBox="5 330 784 470"
   height="470"
   width="784"
   xml:space="preserve"
   id="svg2"
   version="1.1"><metadata
     id="metadata8"><rdf:RDF><cc:Work
         rdf:about=""><dc:format>image/svg+xml</dc:format><dc:type
           rdf:resource="http://purl.org/dc/dcmitype/StillImage" /></cc:Work></rdf:RDF></metadata><defs
     id="defs6"><clipPath
       id="clipPath18"
       clipPathUnits="userSpaceOnUse"><path
         id="path16"
         d="M 0,841.89 H 595.276 V 0 H 0 Z" /></clipPath></defs><g
     transform="matrix(1.3333333,0,0,-1.3333333,0,1122.52)"
     id="g10"><g
       id="g12"><g
         clip-path="url(#clipPath18)"
         id="g14"><g
           transform="translate(361.0439,476.481)"
           id="g20"><path
             id="path22"
             style="fill:#ffffff;fill-opacity:1;fill-rule:nonzero;stroke:none"
             d="m 0,0 c -19.341,0.076 -13.758,2.569 -17.77,-6.739 -51.138,-2.795 -99.875,-5.547 -96.46,-3.757 C 41.479,44.537 23.837,39.164 24.652,37.019 19.451,0.927 14.528,9.19 34.887,9.941 c 24.984,2.331 49.279,4.198 74.39,6.593 3.678,-0.209 -10.46,-4.727 -11.959,-5.562 C 69.074,0.988 41.541,-10.249 13.094,-19.765 17.726,2.99 23.109,-0.296 0,0 0,0.031 0,-0.031 0,0" /></g><g
           transform="translate(508.6507,452.1868)"
           id="g24"><path
             id="path26"
             style="fill:#ffffff;fill-opacity:1;fill-rule:nonzero;stroke:none"
             d="M 0,0 C -5.447,0 -9.87,4.423 -9.871,9.866 -9.873,15.311 -5.37,19.872 0.267,19.728 5.54,19.593 9.885,15.23 9.866,9.8 9.848,4.419 5.412,0 0,0 m 0.007,21.247 c -6.292,0 -11.398,-5.094 -11.394,-11.382 C -11.382,3.582 -6.359,-1.388 -0.261,-1.519 6.195,-1.658 11.38,3.543 11.381,9.848 11.382,16.146 6.293,21.247 0.007,21.247" /></g><g
           transform="translate(509.4809,462.4352)"
           id="g28"><path
             id="path30"
             style="fill:#ffffff;fill-opacity:1;fill-rule:nonzero;stroke:none"
             d="m 0,0 c -1.135,0 -2.27,0.006 -3.405,-0.005 -0.212,-0.002 -0.271,0.052 -0.268,0.267 0.014,0.785 0.006,1.571 0.006,2.357 0,0.796 0.005,1.593 -0.004,2.39 -0.003,0.183 0.046,0.236 0.232,0.235 C -2.26,5.232 -1.082,5.254 0.096,5.223 1.543,5.186 2.646,3.983 2.62,2.515 2.596,1.139 1.41,0.001 0,0 m 2.05,-1.951 c -0.112,0.19 -0.11,0.269 0.102,0.379 1.919,1.008 2.929,3.13 2.466,5.152 C 4.116,5.773 2.341,7.268 0.097,7.317 -1.779,7.358 -3.656,7.329 -5.532,7.339 -5.716,7.34 -5.767,7.293 -5.767,7.107 c 0.005,-4.736 0.006,-9.471 -0.002,-14.206 0,-0.22 0.078,-0.244 0.262,-0.24 0.502,0.011 1.004,0.019 1.505,-0.003 0.262,-0.011 0.346,0.044 0.343,0.328 -0.017,1.538 -0.003,3.077 -0.013,4.615 -0.002,0.229 0.031,0.316 0.292,0.311 0.938,-0.02 1.877,-0.017 2.815,-10e-4 0.222,0.004 0.324,-0.081 0.426,-0.257 0.927,-1.588 1.862,-3.172 2.793,-4.758 0.077,-0.13 0.137,-0.243 0.337,-0.238 0.719,0.017 1.439,0.007 2.22,0.007 -0.081,0.146 -0.135,0.249 -0.194,0.349 -0.987,1.68 -1.972,3.36 -2.967,5.035" /></g><g
           transform="translate(161.2831,468.2108)"
           id="g32"><path
             id="path34"
             style="fill:#ffffff;fill-opacity:1;fill-rule:nonzero;stroke:none"
             d="m 0,0 c 5.714,0 11.43,-0.074 17.143,0.04 2.015,0.04 2.365,-0.516 1.846,-2.413 -3.037,-11.099 -5.991,-22.222 -8.915,-33.352 -0.39,-1.485 -0.984,-2.113 -2.65,-2.104 -7.963,0.046 -15.928,-0.034 -23.891,-0.136 -1.607,-0.02 -2.166,0.241 -1.61,2.046 1.155,3.753 1.935,7.623 3.088,11.377 0.606,1.971 0.157,2.441 -1.82,2.299 -8.831,-0.63 -15.328,-4.963 -19.907,-12.37 -2.476,-4.005 -4.065,-8.405 -5.62,-12.83 -0.649,-1.846 -0.232,-2.223 1.618,-2.186 8.055,0.161 16.115,0.12 24.169,0.337 2.317,0.062 2.614,-0.568 2.036,-2.659 -1.769,-6.404 -3.437,-12.839 -4.96,-19.306 -0.41,-1.743 -1.115,-2.222 -2.823,-2.211 -8.526,0.054 -17.053,-0.066 -25.578,0.001 -1.859,0.015 -2.766,-0.421 -3.293,-2.368 -1.712,-6.32 -3.714,-12.562 -5.504,-18.863 -0.429,-1.512 -1.074,-2.07 -2.716,-2.046 -7.962,0.119 -15.927,0.096 -23.891,0.109 -1.183,0.002 -2.308,-0.186 -1.696,1.727 5.987,18.707 10.063,38.05 17.605,56.219 7.769,18.715 21.111,31.79 41.36,36.812 C -17.434,0.25 -8.692,-0.425 0,0" /></g><g
           transform="translate(373.5427,469.8527)"
           id="g36"><path
             id="path38"
             style="fill:#ffffff;fill-opacity:1;fill-rule:nonzero;stroke:none"
             d="m 0,0 c -2.889,-11.227 -5.727,-22.256 -8.612,-33.468 4.537,-0.056 8.836,0.343 13.08,-0.64 7.711,-1.787 11.683,-6.582 11.798,-14.534 0.107,-7.403 -2.143,-14.414 -3.69,-21.54 -0.913,-4.208 -1.937,-8.393 -2.799,-12.611 -0.678,-3.322 0.861,-4.656 4.061,-3.611 1.242,0.406 2.48,1.198 3.553,-0.206 0.971,-1.272 0.342,-2.529 -0.279,-3.684 -2.524,-4.695 -6.227,-7.97 -11.572,-8.976 -4.752,-0.894 -9.498,-0.937 -14.09,0.942 -3.815,1.561 -5.599,4.476 -5.742,8.523 -0.171,4.841 0.986,9.48 2.093,14.127 0.999,4.189 2.007,8.377 3.072,12.55 0.432,1.69 1.066,3.341 -1.283,4.139 -2.185,0.742 -4.716,-0.087 -5.585,-1.975 -0.464,-1.011 -0.722,-2.124 -1.013,-3.207 -2.838,-10.576 -5.689,-21.149 -8.469,-31.74 -0.468,-1.782 -1.196,-2.542 -3.231,-2.525 -7.215,0.06 -14.437,-0.029 -21.646,-0.299 -2.542,-0.096 -2.616,0.72 -2.065,2.797 7.228,27.236 14.391,54.49 21.568,81.74 1.073,4.074 2.132,8.152 3.191,12.23 0.256,0.987 0.321,1.998 1.818,1.99 C -17.332,-0.024 -8.821,0 0,0" /></g><g
           transform="translate(305.4545,390.1208)"
           id="g40"><path
             id="path42"
             style="fill:#ffffff;fill-opacity:1;fill-rule:nonzero;stroke:none"
             d="m 0,0 c 3.374,0 6.749,-0.056 10.12,0.026 1.487,0.036 1.757,-0.468 1.364,-1.812 -1.601,-5.48 -3.196,-10.964 -4.666,-16.481 -0.339,-1.273 -1.054,-1.642 -2.147,-1.755 -9.609,-0.998 -19.218,-1.976 -28.792,0.302 -10.386,2.471 -17.074,9.866 -17.156,20.477 -0.114,14.747 3.606,28.312 15.681,38.101 8.578,6.955 18.907,8.708 29.601,8.697 4.3,-0.004 8.607,-0.415 12.898,-0.787 3.613,-0.314 4.891,-2.25 3.935,-5.776 C 18.88,33.765 16.835,26.563 14.915,19.326 14.51,17.8 13.841,17.241 12.222,17.271 c -5.434,0.101 -10.873,0.112 -16.306,0 -1.912,-0.039 -2.287,0.568 -1.712,2.262 0.328,0.967 0.445,2.008 0.634,3.02 0.555,2.964 0.364,3.146 -2.718,2.643 -7.469,-1.221 -13.594,-9.079 -12.997,-16.678 0.321,-4.088 3.048,-7.125 7.143,-7.92 C -9.191,-0.284 -4.585,-0.001 0,0" /></g><g
           transform="translate(216.5359,369.7654)"
           id="g44"><path
             id="path46"
             style="fill:#ffffff;fill-opacity:1;fill-rule:nonzero;stroke:none"
             d="m 0,0 c -3.896,0.224 -9.039,0.584 -14.189,0.78 -1.813,0.069 -2.253,0.577 -1.708,2.352 1.457,4.742 2.801,9.521 4.097,14.311 0.385,1.423 1.067,1.895 2.546,1.834 6.181,-0.254 12.366,-0.402 18.551,-0.565 3.254,-0.085 5.225,1.217 5.672,3.804 0.503,2.909 -1.323,4.275 -3.667,5.212 -3.4,1.359 -6.71,2.896 -9.676,5.066 -4.822,3.529 -6.862,8.234 -5.924,14.196 1.996,12.692 9.802,19.51 23.514,19.951 10.214,0.328 20.415,-0.535 30.614,-1.094 1.507,-0.083 1.662,-0.669 1.28,-1.95 -1.498,-5.025 -2.987,-10.054 -4.345,-15.117 -0.426,-1.592 -1.457,-1.412 -2.578,-1.379 -6.184,0.18 -12.368,0.365 -18.552,0.533 -3.019,0.082 -5.028,-1.269 -5.453,-3.704 -0.5,-2.864 1.138,-4.372 3.543,-5.284 4.32,-1.638 8.448,-3.572 11.763,-6.922 3.1,-3.132 4.381,-6.915 4.076,-11.252 C 38.775,9.562 31.133,1.649 19.779,0.049 13.591,-0.822 7.429,-0.084 0,0" /></g><g
           transform="translate(494.5692,432.0931)"
           id="g48"><path
             id="path50"
             style="fill:#ffffff;fill-opacity:1;fill-rule:nonzero;stroke:none"
             d="M 0,0 C 6.993,3.796 14.077,5.56 21.635,5.314 24.912,5.207 24.921,5.24 24.151,2.038 22.554,-4.608 20.913,-11.243 19.37,-17.9 c -0.369,-1.592 -1.012,-2.325 -2.784,-2.386 -2.901,-0.1 -5.759,-0.734 -8.538,-1.603 -7.074,-2.214 -11.399,-7.04 -13.815,-13.986 -2.686,-7.718 -4.257,-15.711 -6.329,-23.579 -0.45,-1.707 -1.112,-2.396 -3.025,-2.314 -6.928,0.295 -13.865,0.406 -20.799,0.509 -1.565,0.024 -2.085,0.29 -1.702,2.075 4.556,21.242 9.048,42.497 13.46,63.769 0.416,2.01 1.309,2.465 3.19,2.458 C -14.225,7.018 -7.475,7.09 -0.731,7.278 1.026,7.327 1.106,6.612 0.862,5.291 0.562,3.671 0.329,2.04 0,0" /></g><g
           transform="translate(194.0962,436.6413)"
           id="g52"><path
             id="path54"
             style="fill:#ffffff;fill-opacity:1;fill-rule:nonzero;stroke:none"
             d="m 0,0 c 3.558,0 7.075,-0.11 10.674,-0.284 1.922,-0.093 2.317,-0.432 1.837,-2.386 -4.533,-18.44 -8.955,-36.908 -13.409,-55.367 -1.64,-6.801 -1.64,-6.796 -8.658,-6.604 -5.241,0.142 -10.483,0.302 -15.725,0.38 -1.499,0.023 -2.177,0.262 -1.762,2.052 4.693,20.228 9.332,40.47 13.917,60.723 0.319,1.409 1.055,1.506 2.172,1.497 C -7.303,-0.019 -3.651,0 0,0 0,-0.105 0,0.105 0,0" /></g><g
           transform="translate(197.7419,444.7342)"
           id="g56"><path
             id="path58"
             style="fill:#ffffff;fill-opacity:1;fill-rule:nonzero;stroke:none"
             d="M 0,0 C -6.941,-0.012 -12.719,5.793 -12.678,12.736 -12.636,19.789 -7.009,25.358 0.07,25.352 7.15,25.347 12.728,19.754 12.72,12.669 12.712,5.657 7.044,0.012 0,0" /></g><g
           transform="translate(440.8088,416.9828)"
           id="g60"><path
             id="path62"
             style="fill:#ffffff;fill-opacity:1;fill-rule:nonzero;stroke:none"
             d="m 0,0 c -0.254,-2.63 -1.807,-3.737 -5.219,-3.727 -1.681,0.005 -3.361,10e-4 -5.042,10e-4 0,0.094 0,-0.094 0,0 -2.053,0 -3.749,0.048 -6.161,0.155 -1.561,0.069 -1.672,0.705 -1.059,2.013 1.874,3.997 8.635,7.535 12.96,6.679 C -1.525,4.527 0.244,2.524 0,0 m 5.361,19.504 c -12.407,5.129 -30.282,0.363 -38.681,-10.503 -8.012,-10.366 -10.555,-22.433 -9.872,-35.197 0.606,-11.337 8.282,-18.971 19.56,-20.414 4.96,-0.634 9.913,-0.3 14.872,0.003 3.84,0 7.681,0.056 11.519,-0.027 1.516,-0.033 2.12,0.504 2.386,2.007 0.978,5.529 2.021,11.048 3.198,16.538 0.414,1.928 -0.105,2.427 -1.997,2.411 -6.465,-0.056 -12.93,0.021 -19.395,0.067 -2.076,0.014 -4.133,0.215 -5.92,1.416 -1.41,0.947 -1.779,2.303 -1.428,3.936 0.395,1.842 1.842,1.142 2.936,1.256 0.648,0.068 1.31,0.011 1.966,0.004 6.276,-0.069 12.553,-0.177 18.829,-0.192 3.164,-0.008 6.54,0.201 7.732,3.771 2.162,6.476 4.116,13.044 4.209,19.974 0.104,7.651 -2.793,12.007 -9.914,14.95" /></g><g
           transform="translate(520.7847,345.9967)"
           id="g64"><path
             id="path66"
             style="fill:#ffffff;fill-opacity:1;fill-rule:nonzero;stroke:none"
             d="m 0,0 c -27.575,-18.628 -58.162,-30.284 -90.099,-38.8 -31.594,-8.425 -63.755,-13.227 -96.366,-15.305 -12.223,-0.778 -24.448,-1.048 -36.684,-1.136 -24.322,-0.13 -48.549,1.391 -72.651,4.58 -31.571,4.177 -62.566,10.935 -92.544,21.862 -23.515,8.572 -45.966,19.256 -65.933,34.592 -11.365,8.729 -21.494,18.663 -28.942,31.065 -14.069,23.426 -13.599,46.72 0.817,69.778 8.512,13.615 20.179,24.181 33.152,33.391 22.406,15.909 47.277,26.733 73.283,35.119 34.481,11.12 69.906,17.364 105.967,20.341 23.974,1.979 47.973,2.443 71.988,1.406 35.476,-1.533 70.525,-6.216 104.944,-15.129 28.034,-7.259 55.097,-17.034 80.273,-31.56 C 2.153,141.58 15.972,131.468 27.383,118.396 35.884,108.659 42.572,97.843 45.534,85.074 49.99,65.863 45.289,48.557 34.309,32.648 25.154,19.384 13.259,8.957 0,0 m -223.147,224.421 c -154.525,0 -279.792,-68.648 -279.792,-153.331 0,-84.682 125.267,-153.33 279.792,-153.33 154.525,0 279.792,68.648 279.792,153.33 0,84.683 -125.267,153.331 -279.792,153.331" /></g><g
           transform="translate(245.9551,327.8381)"
           id="g68"><path
             id="path70"
             style="fill:#ffffff;fill-opacity:1;fill-rule:nonzero;stroke:none"
             d="m 0,0 0.985,1.315 c 1.025,-0.826 2.066,-1.398 3.482,-1.398 1.549,0 2.318,0.826 2.318,1.832 C 6.785,2.963 5.393,3.5 4.087,3.985 2.434,4.589 0.57,5.403 0.57,7.393 c 0,1.887 1.512,3.348 4.068,3.348 1.469,0 2.754,-0.601 3.668,-1.326 L 7.351,8.136 C 6.539,8.737 5.705,9.186 4.661,9.186 3.175,9.186 2.489,8.394 2.489,7.495 2.489,6.373 3.772,5.946 5.108,5.448 6.809,4.807 8.705,4.115 8.705,1.869 8.705,-0.044 7.185,-1.637 4.401,-1.637 2.725,-1.637 1.109,-0.927 0,0" /></g><path
           id="path72"
           style="fill:#ffffff;fill-opacity:1;fill-rule:nonzero;stroke:none"
           d="m 257.433,338.288 h 1.996 v -11.796 h -1.996 z m -0.365,3.714 c 0,0.784 0.602,1.29 1.378,1.29 0.777,0 1.379,-0.506 1.379,-1.29 0,-0.753 -0.602,-1.289 -1.379,-1.289 -0.776,0 -1.378,0.536 -1.378,1.289" /><g
           transform="translate(263.4036,338.2877)"
           id="g74"><path
             id="path76"
             style="fill:#ffffff;fill-opacity:1;fill-rule:nonzero;stroke:none"
             d="m 0,0 h 1.649 l 0.169,-1.701 h 0.066 c 1.124,1.106 2.337,1.992 3.957,1.992 2.485,0 3.602,-1.603 3.602,-4.612 v -7.475 H 7.447 v 7.216 c 0,2.198 -0.665,3.138 -2.226,3.138 -1.206,0 -2.042,-0.615 -3.225,-1.811 v -8.543 H 0 Z" /></g><g
           transform="translate(275.8039,332.3744)"
           id="g78"><path
             id="path80"
             style="fill:#ffffff;fill-opacity:1;fill-rule:nonzero;stroke:none"
             d="m 0,0 c 0,3.936 2.659,6.205 5.675,6.205 1.549,0 2.621,-0.639 3.451,-1.385 L 8.105,3.501 C 7.418,4.121 6.692,4.543 5.765,4.543 3.629,4.543 2.063,2.703 2.063,0 c 0,-2.703 1.479,-4.512 3.648,-4.512 1.078,0 2.034,0.524 2.77,1.175 L 9.346,-4.674 C 8.286,-5.62 6.948,-6.174 5.533,-6.174 2.393,-6.174 0,-3.906 0,0" /></g><g
           transform="translate(294.6081,333.3396)"
           id="g82"><path
             id="path84"
             style="fill:#ffffff;fill-opacity:1;fill-rule:nonzero;stroke:none"
             d="M 0,0 C 0,2.364 -1.063,3.649 -2.908,3.649 -4.566,3.649 -6.048,2.318 -6.291,0 Z m -8.246,-0.965 c 0,3.839 2.587,6.205 5.302,6.205 3.009,0 4.708,-2.161 4.708,-5.536 0,-0.421 -0.036,-0.842 -0.093,-1.134 h -7.944 c 0.143,-2.499 1.671,-4.119 3.919,-4.119 1.132,0 2.062,0.366 2.936,0.943 l 0.714,-1.309 c -1.034,-0.678 -2.291,-1.224 -3.895,-1.224 -3.144,0 -5.647,2.299 -5.647,6.174" /></g><g
           transform="translate(304.0493,328.1536)"
           id="g86"><path
             id="path88"
             style="fill:#ffffff;fill-opacity:1;fill-rule:nonzero;stroke:none"
             d="m 0,0 h 3.546 v 11.395 h -2.82 v 1.284 c 1.41,0.248 2.434,0.623 3.292,1.137 H 5.542 V 0 H 8.738 V -1.662 H 0 Z" /></g><g
           transform="translate(315.4505,327.8353)"
           id="g90"><path
             id="path92"
             style="fill:#ffffff;fill-opacity:1;fill-rule:nonzero;stroke:none"
             d="M 0,0 1.111,1.248 C 1.734,0.499 2.69,0.027 3.655,0.027 c 2.233,0 4.09,1.766 4.09,6.957 0,3.804 -1.235,5.869 -3.454,5.869 -1.518,0 -2.693,-1.353 -2.693,-3.394 0,-2.017 0.948,-3.285 2.864,-3.285 1.004,0 2.263,0.602 3.327,2.192 L 7.86,6.788 C 6.887,5.487 5.44,4.672 4.128,4.672 c -2.683,0 -4.414,1.61 -4.414,4.787 0,2.963 2.089,4.966 4.572,4.966 3.052,0 5.343,-2.473 5.343,-7.441 0,-6.225 -2.812,-8.619 -5.898,-8.619 C 2.069,-1.635 0.85,-0.927 0,0" /></g><g
           transform="translate(327.5134,327.8353)"
           id="g94"><path
             id="path96"
             style="fill:#ffffff;fill-opacity:1;fill-rule:nonzero;stroke:none"
             d="M 0,0 1.111,1.248 C 1.734,0.499 2.69,0.027 3.655,0.027 c 2.233,0 4.09,1.766 4.09,6.957 0,3.804 -1.234,5.869 -3.454,5.869 -1.518,0 -2.693,-1.353 -2.693,-3.394 0,-2.017 0.948,-3.285 2.864,-3.285 1.004,0 2.263,0.602 3.327,2.192 L 7.86,6.788 C 6.887,5.487 5.44,4.672 4.128,4.672 c -2.683,0 -4.414,1.61 -4.414,4.787 0,2.963 2.089,4.966 4.572,4.966 3.052,0 5.343,-2.473 5.343,-7.441 0,-6.225 -2.812,-8.619 -5.898,-8.619 C 2.069,-1.635 0.85,-0.927 0,0" /></g><g
           transform="translate(347.3829,334.2879)"
           id="g98"><path
             id="path100"
             style="fill:#ffffff;fill-opacity:1;fill-rule:nonzero;stroke:none"
             d="m 0,0 c 0,4.537 -1.224,6.365 -3.023,6.365 -1.798,0 -3.022,-1.828 -3.022,-6.365 0,-4.537 1.224,-6.479 3.022,-6.479 C -1.224,-6.479 0,-4.537 0,0 m -7.983,0 c 0,5.189 1.87,7.973 4.96,7.973 3.091,0 4.961,-2.792 4.961,-7.973 0,-5.189 -1.87,-8.087 -4.961,-8.087 -3.09,0 -4.96,2.898 -4.96,8.087" /></g></g></g></g></svg>